nColumns=28
nRows=40
DataType=double
version=3
OpenSimVersion=4.1
endheader
time	ground_force_1_vx	ground_force_1_vy	ground_force_1_vz	ground_force_1_px	ground_force_1_py	ground_force_1_pz	ground_force_1_mx	ground_force_1_my	ground_force_1_mz	ground_force_2_vx	ground_force_2_vy	ground_force_2_vz	ground_force_2_px	ground_force_2_py	ground_force_2_pz	ground_force_2_mx	ground_force_2_my	ground_force_2_mz	ground_force_3_vx	ground_force_3_vy	ground_force_3_vz	ground_force_3_px	ground_force_3_py	ground_force_3_pz	ground_force_3_mx	ground_force_3_my	ground_force_3_mz
2.96	10.9388	361.1	-55.066	-0.277932	0.006	-0.433163	0	-0.132369	0	-7.10209	336.544	60.5947	-0.212099	0.006	-0.843622	0	1.02806	0	0	0	0	0	0	0	0	0	0
2.97	10.7299	363.981	-55.5928	-0.277355	0.006	-0.43315	0	-0.210823	0	-6.95531	337.578	61.1672	-0.211539	0.006	-0.843674	0	1.06595	0	0	0	0	0	0	0	0	0	0
2.98	10.4671	366.362	-56.101	-0.276743	0.006	-0.43309	0	-0.298393	0	-6.86339	338.22	61.64	-0.210979	0.006	-0.843709	0	1.1077	0	0	0	0	0	0	0	0	0	0
2.99	10.1509	368.278	-56.5865	-0.2761	0.006	-0.432987	0	-0.395232	0	-6.83709	338.545	62.0205	-0.210422	0.006	-0.843728	0	1.15404	0	0	0	0	0	0	0	0	0	0
3	9.78392	369.787	-57.0457	-0.275433	0.006	-0.432844	0	-0.501161	0	-6.87963	338.626	62.3121	-0.209873	0.006	-0.843729	0	1.20571	0	0	0	0	0	0	0	0	0	0
3.01	9.37259	370.964	-57.4774	-0.274748	0.006	-0.432667	0	-0.615707	0	-6.98633	338.528	62.5139	-0.209339	0.006	-0.843711	0	1.26314	0	0	0	0	0	0	0	0	0	0
3.02	8.92744	371.898	-57.8836	-0.274052	0.006	-0.43246	0	-0.738133	0	-7.14586	338.306	62.6226	-0.208828	0.006	-0.843671	0	1.32651	0	0	0	0	0	0	0	0	0	0
3.03	8.46272	372.682	-58.2673	-0.27335	0.006	-0.432227	0	-0.867344	0	-7.34298	338.003	62.6348	-0.208343	0.006	-0.843609	0	1.39568	0	0	0	0	0	0	0	0	0	0
3.04	7.9943	373.395	-58.6315	-0.272647	0.006	-0.431973	0	-1.00177	0	-7.56168	337.653	62.5486	-0.20789	0.006	-0.843523	0	1.47006	0	0	0	0	0	0	0	0	0	0
3.05	7.53689	374.097	-58.977	-0.271948	0.006	-0.4317	0	-1.13933	0	-7.78779	337.273	62.3653	-0.207467	0.006	-0.843417	0	1.54861	0	0	0	0	0	0	0	0	0	0
3.06	7.10429	374.824	-59.3024	-0.271256	0.006	-0.431411	0	-1.27762	0	-8.01053	336.873	62.0891	-0.207073	0.006	-0.843292	0	1.62999	0	0	0	0	0	0	0	0	0	0
3.07	6.70945	375.605	-59.604	-0.270571	0.006	-0.431108	0	-1.41403	0	-8.22279	336.456	61.7276	-0.206705	0.006	-0.843151	0	1.71274	0	0	0	0	0	0	0	0	0	0
3.08	6.36213	376.47	-59.8768	-0.269896	0.006	-0.430796	0	-1.54589	0	-8.41983	336.034	61.29	-0.206361	0.006	-0.842998	0	1.79542	0	0	0	0	0	0	0	0	0	0
3.09	6.06841	377.468	-60.1168	-0.269233	0.006	-0.430479	0	-1.67074	0	-8.59761	335.631	60.7858	-0.206041	0.006	-0.842833	0	1.87677	0	0	0	0	0	0	0	0	0	0
3.1	5.83225	378.669	-60.3234	-0.268585	0.006	-0.430164	0	-1.7865	0	-8.75152	335.294	60.2242	-0.205747	0.006	-0.842657	0	1.95571	0	0	0	0	0	0	0	0	0	0
3.11	5.65618	380.174	-60.5005	-0.267955	0.006	-0.429858	0	-1.89173	0	-8.87614	335.084	59.6139	-0.205484	0.006	-0.842471	0	2.03146	0	0	0	0	0	0	0	0	0	0
3.12	5.54176	382.101	-60.6565	-0.267353	0.006	-0.429568	0	-1.98572	0	-8.96632	335.082	58.9625	-0.20526	0.006	-0.842273	0	2.10363	0	0	0	0	0	0	0	0	0	0
3.13	5.49031	384.568	-60.8009	-0.266788	0.006	-0.429302	0	-2.06846	0	-9.01805	335.377	58.2767	-0.205089	0.006	-0.84206	0	2.17236	0	0	0	0	0	0	0	0	0	0
3.14	5.50341	387.671	-60.941	-0.266275	0.006	-0.429069	0	-2.14046	0	-9.0285	336.061	57.5612	-0.204984	0.006	-0.841828	0	2.23837	0	0	0	0	0	0	0	0	0	0
3.15	5.58251	391.474	-61.0799	-0.265826	0.006	-0.428876	0	-2.20265	0	-8.99436	337.221	56.8185	-0.204963	0.006	-0.841575	0	2.30279	0	0	0	0	0	0	0	0	0	0
3.16	5.72838	395.999	-61.2156	-0.265451	0.006	-0.428729	0	-2.25628	0	-8.9107	338.921	56.0495	-0.205038	0.006	-0.841299	0	2.36682	0	0	0	0	0	0	0	0	0	0
3.17	5.94091	401.226	-61.3409	-0.265155	0.006	-0.428629	0	-2.30273	0	-8.77185	341.197	55.2543	-0.205219	0.006	-0.840999	0	2.43126	0	0	0	0	0	0	0	0	0	0
3.18	6.21797	407.091	-61.4438	-0.264938	0.006	-0.428578	0	-2.34341	0	-8.5737	344.045	54.435	-0.205506	0.006	-0.840679	0	2.49631	0	0	0	0	0	0	0	0	0	0
3.19	6.554	413.486	-61.5105	-0.264794	0.006	-0.428572	0	-2.37959	0	-8.31516	347.423	53.596	-0.205892	0.006	-0.840344	0	2.56164	0	0	0	0	0	0	0	0	0	0
3.2	6.94027	420.263	-61.5265	-0.264713	0.006	-0.428604	0	-2.41224	0	-7.99739	351.253	52.7451	-0.206359	0.006	-0.840003	0	2.62667	0	0	0	0	0	0	0	0	0	0
3.21	7.36798	427.233	-61.4782	-0.264683	0.006	-0.428668	0	-2.44186	0	-7.6225	355.416	51.8918	-0.206887	0.006	-0.839668	0	2.69057	0	0	0	0	0	0	0	0	0	0
3.22	7.82989	434.164	-61.3541	-0.264689	0.006	-0.428754	0	-2.46841	0	-7.19437	359.754	51.0463	-0.207446	0.006	-0.839352	0	2.7524	0	0	0	0	0	0	0	0	0	0
3.23	8.31808	440.794	-61.1445	-0.264713	0.006	-0.428851	0	-2.49125	0	-6.72082	364.078	50.2195	-0.208006	0.006	-0.839066	0	2.81123	0	0	0	0	0	0	0	0	0	0
3.24	8.82201	446.844	-60.8412	-0.26474	0.006	-0.42895	0	-2.50927	0	-6.21467	368.184	49.4217	-0.208534	0.006	-0.838823	0	2.86618	0	0	0	0	0	0	0	0	0	0
3.25	9.3269	452.046	-60.4372	-0.264754	0.006	-0.429042	0	-2.52124	0	-5.69394	371.863	48.6622	-0.209002	0.006	-0.838631	0	2.9164	0	0	0	0	0	0	0	0	0	0
3.26	9.81155	456.166	-59.9268	-0.264741	0.006	-0.429124	0	-2.52606	0	-5.1815	374.922	47.9487	-0.209382	0.006	-0.838499	0	2.96114	0	0	0	0	0	0	0	0	0	0
3.27	10.2484	459.014	-59.3074	-0.264691	0.006	-0.429192	0	-2.52272	0	-4.70386	377.198	47.2859	-0.209653	0.006	-0.838431	0	2.99985	0	0	0	0	0	0	0	0	0	0
3.28	10.6061	460.463	-58.58	-0.264593	0.006	-0.429242	0	-2.51032	0	-4.2885	378.565	46.6755	-0.209799	0.006	-0.838428	0	3.03206	0	0	0	0	0	0	0	0	0	0
3.29	10.8525	460.446	-57.7496	-0.264441	0.006	-0.429275	0	-2.48812	0	-3.96114	378.939	46.1163	-0.209809	0.006	-0.83849	0	3.05742	0	0	0	0	0	0	0	0	0	0
3.3	10.9605	458.964	-56.8235	-0.264229	0.006	-0.429292	0	-2.45583	0	-3.74331	378.289	45.6045	-0.209677	0.006	-0.838614	0	3.07576	0	0	0	0	0	0	0	0	0	0
3.31	10.911	456.076	-55.8098	-0.26396	0.006	-0.429295	0	-2.41377	0	-3.65087	376.628	45.1342	-0.209403	0.006	-0.838794	0	3.08718	0	0	0	0	0	0	0	0	0	0
3.32	10.6935	451.891	-54.7173	-0.263638	0.006	-0.42929	0	-2.36265	0	-3.69294	374.014	44.6973	-0.208997	0.006	-0.839021	0	3.09204	0	0	0	0	0	0	0	0	0	0
3.33	10.3063	446.547	-53.5553	-0.263271	0.006	-0.429282	0	-2.30347	0	-3.8718	370.537	44.2846	-0.208471	0.006	-0.839284	0	3.09084	0	0	0	0	0	0	0	0	0	0
3.34	9.75662	440.204	-52.3339	-0.262869	0.006	-0.429278	0	-2.23736	0	-4.18379	366.314	43.8868	-0.207843	0.006	-0.839571	0	3.08407	0	0	0	0	0	0	0	0	0	0
3.35	9.06026	433.031	-51.0646	-0.262446	0.006	-0.429285	0	-2.16562	0	-4.62025	361.483	43.496	-0.207131	0.006	-0.839869	0	3.07223	0	0	0	0	0	0	0	0	0	0
